<svg width="29" height="29" viewBox="0 0 29 29" fill="none" xmlns="http://www.w3.org/2000/svg">
<path d="M14.4999 28.7157C13.0999 28.7157 11.6999 28.1835 10.6353 27.1174L9.99227 26.4743C9.78811 26.2701 9.5066 26.1534 9.21931 26.1534H8.31373C5.30081 26.1534 2.84783 23.702 2.84783 20.6876V19.782C2.84783 19.4947 2.7312 19.2118 2.52704 19.0091L1.88385 18.3659C-0.248231 16.2353 -0.248231 12.7674 1.88385 10.6353L2.52704 9.99219C2.7312 9.78802 2.84783 9.50656 2.84783 9.21781V8.31218C2.84783 5.2978 5.30081 2.84637 8.31373 2.84637H9.21931C9.5066 2.84637 9.78956 2.7297 9.99227 2.52553L10.6353 1.88239C12.7659 -0.248232 16.2353 -0.248232 18.3659 1.88239L19.0091 2.52553C19.2133 2.7297 19.4946 2.84637 19.7819 2.84637H20.6877C23.7006 2.84637 26.1534 5.2978 26.1534 8.31218V9.21781C26.1534 9.50656 26.2702 9.78802 26.4744 9.99219L27.1174 10.6353C29.2494 12.766 29.2494 16.2339 27.1174 18.3659L26.4744 19.0091C26.2702 19.2133 26.1534 19.4947 26.1534 19.782V20.6876C26.1534 23.702 23.7006 26.1534 20.6877 26.1534H19.7819C19.4946 26.1534 19.2118 26.2701 19.0091 26.4728L18.3659 27.1174C17.2999 28.1835 15.8999 28.7157 14.4999 28.7157ZM8.31213 5.03387C6.50525 5.03387 5.0339 6.5053 5.0339 8.31218V9.21781C5.0339 10.0943 4.69257 10.9182 4.07278 11.538L3.42977 12.1812C2.80998 12.801 2.47007 13.6234 2.47007 14.4999C2.47007 15.3764 2.80998 16.1989 3.42977 16.8186L4.07278 17.4618C4.69257 18.0816 5.0339 18.9055 5.0339 19.782V20.6876C5.0339 22.496 6.50525 23.9659 8.31213 23.9659H9.21789C10.0827 23.9659 10.9284 24.3159 11.538 24.927L12.1812 25.5701C13.4208 26.8082 15.579 26.8082 16.8186 25.5701L17.4618 24.927C18.0714 24.3159 18.9171 23.9659 19.7819 23.9659H20.6877C22.4945 23.9659 23.9659 22.4945 23.9659 20.6876V19.782C23.9659 18.9055 24.3072 18.0816 24.927 17.4618L25.57 16.8186C26.1898 16.1989 26.5297 15.3764 26.5297 14.4999C26.5297 13.6234 26.1898 12.801 25.57 12.1812L24.927 11.538C24.3072 10.9182 23.9659 10.0943 23.9659 9.21781V8.31218C23.9659 6.50385 22.4945 5.03387 20.6877 5.03387H19.7819C18.9186 5.03387 18.0728 4.68387 17.4618 4.07283L16.8186 3.42969C15.579 2.19157 13.4208 2.19157 12.1812 3.42969L11.538 4.07283C10.927 4.68387 10.0812 5.03387 9.21789 5.03387H8.31213ZM13.8145 18.1895L19.6479 12.3562C20.0751 11.9289 20.0751 11.2361 19.6479 10.8089C19.2206 10.3816 18.5278 10.3816 18.1005 10.8089L13.0401 15.8693L10.8964 13.7255C10.4691 13.2982 9.77638 13.2982 9.34909 13.7255C8.9218 14.1528 8.9218 14.8455 9.34909 15.2728L12.2658 18.1895C12.4787 18.4024 12.7587 18.5103 13.0387 18.5103C13.3187 18.5103 13.6016 18.4039 13.8145 18.1895Z" fill="white"/>
</svg>
