<svg width="30" height="29" viewBox="0 0 30 29" fill="none" xmlns="http://www.w3.org/2000/svg">
<path d="M24.8438 6.18312V5.75C24.8438 2.22375 22.9013 0.28125 19.375 0.28125H4.79167C2.57938 0.28125 0.78125 2.07938 0.78125 4.29167V23.25C0.78125 26.7763 2.72375 28.7188 6.25 28.7188H23.75C27.2763 28.7188 29.2188 26.7763 29.2188 23.25V11.5833C29.2188 8.44063 27.6758 6.55645 24.8438 6.18312ZM27.0312 19.9688H21.5625C20.1552 19.9688 19.0104 18.824 19.0104 17.4167C19.0104 16.0094 20.1552 14.8646 21.5625 14.8646H27.0312V19.9688ZM4.79167 2.46875H19.375C21.6748 2.46875 22.6562 3.45021 22.6562 5.75V6.11458H4.79167C3.78688 6.11458 2.96875 5.29646 2.96875 4.29167C2.96875 3.28688 3.78688 2.46875 4.79167 2.46875ZM23.75 26.5312H6.25C3.95021 26.5312 2.96875 25.5498 2.96875 23.25V7.86309C3.51562 8.14309 4.13542 8.30208 4.79167 8.30208H23.75C26.0498 8.30208 27.0312 9.28354 27.0312 11.5833V12.6771H21.5625C18.9492 12.6771 16.8229 14.8033 16.8229 17.4167C16.8229 20.03 18.9492 22.1562 21.5625 22.1562H27.0312V23.25C27.0312 25.5498 26.0498 26.5312 23.75 26.5312ZM22.3063 15.9583H22.3209C23.1273 15.9583 23.7792 16.6117 23.7792 17.4167C23.7792 18.2217 23.1273 18.875 22.3209 18.875C21.5159 18.875 20.8552 18.2217 20.8552 17.4167C20.8552 16.6117 21.5013 15.9583 22.3063 15.9583Z" fill="white"/>
</svg>
